<?xml version="1.0"?>
<svg width="512" height="512" xmlns="http://www.w3.org/2000/svg" xmlns:svg="http://www.w3.org/2000/svg" enable-background="new 0 0 512 512">
 <g class="layer">
  <title>Layer 1</title>
  <g clip-rule="evenodd" fill-rule="evenodd" id="svg_1">
   <path d="m501.93,300.62c-2.63,36.92 -14.73,71.27 -33.92,100.53c-37.75,57.7 -102.9,95.79 -176.94,95.79c-45.94,0 -88.45,-14.75 -123.12,-39.75c-53.45,-38.55 -88.28,-101.51 -88.28,-172.38l127.57,-177.55l96.57,-33.06c24.95,1.48 48.71,7.28 70.58,16.69c6.85,2.94 13.53,6.25 20.01,9.88c64.47,36.24 108.04,105.31 108.04,184.59c0,5.14 -0.17,10.23 -0.51,15.26z" fill="#a6e7f0" id="svg_2"/>
   <path d="m394.4,100.77c64.47,36.24 108.04,105.31 108.04,184.59c0,5.14 -0.17,10.23 -0.51,15.26c-4.83,32.23 -60.53,29.14 -63.47,1.05c-2.71,-25.86 -26.56,-26.52 -37.52,-27.6c-27.01,-2.75 -39.26,-22.07 -4.77,-67.39c28.72,-37.75 -76.61,-76.07 -21.78,-115.79c6.85,2.94 13.53,6.25 20.01,9.88z" fill="#80d261" id="svg_3"/>
   <path d="m310,147.53l13.25,11.77c6.74,6 7.36,16.43 1.37,23.2l-32.61,36.73l-24.9,-18.26l1.57,-31.64l18.16,-20.43c6,-6.77 16.42,-7.37 23.16,-1.37z" fill="#838383" id="svg_4"/>
   <path d="m268.69,169.33l23.32,49.9l10.19,21.86c7.57,16.17 2.12,32.55 -3.94,39.35l-11.76,13.23c-8.88,10.03 -16.25,7.03 -23.38,-3.8l-68.67,-101.62l9.65,-45.81l48.71,-7.12l15.88,34.01z" fill="#acacac" id="svg_5"/>
   <path d="m143.34,234.6l25.27,50.87c6.2,12.49 1.63,25.43 -3.08,30.75l-6.46,7.26c-6.93,7.83 -12.7,5.51 -18.27,-2.97l-40.29,-47.07l9.54,-27.52l33.29,-11.32z" fill="#acacac" id="svg_6"/>
   <path d="m45.98,176.42l52.62,18.52l-0.23,36.06l-32.86,10.52l-51.02,-33.35c-9.06,-4.55 -12.05,-10.01 -5.09,-17.81l6.46,-7.28c4.71,-5.29 16.98,-11.29 30.12,-6.66z" fill="#acacac" id="svg_7"/>
   <path d="m350.57,395.69c18.82,-31.29 76.78,-38.44 117.44,5.46c-37.75,57.7 -102.9,95.79 -176.94,95.79c-45.94,0 -88.45,-14.74 -123.12,-39.75c-1.91,-57.98 44.89,-73.01 82.6,-41.84c16.25,13.41 76.3,19.89 100.02,-19.66z" fill="#80d261" id="svg_8"/>
   <path d="m141.37,3.07c3.88,0 7.77,1.34 10.85,4.11l13.25,11.78c6.77,6 7.36,16.46 1.37,23.2l-18.13,20.43l-38.66,0l-13.59,-17.31l32.6,-36.73c3.23,-3.62 7.74,-5.48 12.25,-5.48l0.06,0z" fill="#838383" id="svg_9"/>
   <path d="m96.46,45.28l52.25,17.31l35.57,11.78l-6.28,46.01l-39.34,18.23l-108.93,-56.33c-11.59,-5.83 -15.42,-12.77 -6.51,-22.8l11.76,-13.23c6.03,-6.8 21.65,-14.15 38.58,-8.55l22.9,7.58z" fill="#acacac" id="svg_10"/>
   <path d="m246.87,13.53c17.5,-5.2 40.66,-8.66 51.68,1.25c11.14,9.78 10.39,33.18 7.28,51.19c-0.45,2.68 -1.11,5.43 -2.02,8.23c-4.06,12.74 -12.77,26.37 -27.5,39.83l-23.5,21.29l-58.36,52.93l-94.02,85.1l-4,3.77c-5.71,4.75 -11.48,7.15 -16.76,7.69c-17.82,1.83 -30.24,-17.46 -17.7,-38.32l3.54,-4.97l73.15,-102.91l45.63,-64.24l18.38,-25.84c14.14,-19.77 29.61,-30.66 44.2,-35z" fill="#ececec" id="svg_11"/>
   <path d="m233.28,115.98l-58.36,52.92l-94.02,85.1l-4,3.78c-5.74,4.74 -11.48,7.14 -16.76,7.68c-1.08,0.12 -2.14,0.15 -3.17,0.12c1.06,12.03 10.65,20.46 22.7,19.23c5.28,-0.54 11.05,-2.94 16.76,-7.69l4,-3.77l94.02,-85.1l58.36,-52.93l23.5,-21.29c14.73,-13.46 23.44,-27.09 27.5,-39.83c0.91,-2.8 1.57,-5.55 2.02,-8.23c3.11,-18.01 3.86,-41.41 -7.28,-51.19c-3.14,-2.82 -7.25,-4.57 -11.96,-5.48c2.77,11.11 1.77,25.4 -0.29,37.35c-0.45,2.68 -1.11,5.4 -2.02,8.2c-4.06,12.75 -12.77,26.38 -27.5,39.84l-23.5,21.29z" fill="#cecece" id="svg_12"/>
   <path d="m277.42,276.92l-68.69,-101.62l-14.28,12.95l68.67,101.62c7.13,10.83 14.5,13.83 23.38,3.8l6.43,-7.23c-5.57,1.71 -10.6,-2.03 -15.51,-9.52z" fill="#838383" id="svg_13"/>
   <path d="m312.91,172.07l-28.12,31.7l7.22,15.46l32.61,-36.73c6,-6.77 5.37,-17.2 -1.37,-23.2l-11.65,-10.37l0,0.02c6.68,6.01 7.28,16.41 1.31,23.12z" fill="#595959" id="svg_14"/>
   <path d="m132.17,57.01l16.54,5.58l18.13,-20.43c6,-6.74 5.4,-17.2 -1.37,-23.2l-9.08,-8.09c6.71,6.03 4.13,15.3 -1.98,21.96l-22.24,24.18z" fill="#595959" id="svg_15"/>
   <path d="m149.11,123.86l-108.9,-56.32c-8.11,-4.06 -12.42,-8.69 -11.22,-14.55l-5.77,6.49c-8.91,10.03 -5.08,16.97 6.51,22.8l108.93,56.33l10.45,-14.75z" fill="#838383" id="svg_16"/>
   <path d="m153.05,309.39l-40.29,-47.07l-12.25,11.12l40.29,47.06c5.57,8.49 11.34,10.81 18.27,2.98l5.83,-6.55c-4.23,1.12 -8.08,-1.83 -11.85,-7.54z" fill="#838383" id="svg_17"/>
   <path d="m75.13,227.97l-50.99,-33.35c-6.11,-3.09 -9.46,-6.54 -8.86,-10.89l-5.88,6.63c-6.96,7.8 -3.97,13.26 5.08,17.81l51.03,33.35l9.62,-13.55z" fill="#838383" id="svg_18"/>
   <path d="m502.44,285.36c0,-79.28 -43.57,-148.35 -108.04,-184.59c-3.45,-1.94 -6.99,-3.8 -10.59,-5.57c34.57,45.78 55.99,109.28 55.99,179.47c0,9.57 -0.4,19 -1.17,28.26c4.42,26.92 58.56,29.44 63.3,-2.31c0.34,-5.03 0.51,-10.12 0.51,-15.26z" fill="#4fc122" id="svg_19"/>
   <path d="m501.93,300.62c-4.74,31.74 -58.88,29.23 -63.3,2.31c-2.09,24.83 -6.83,48.55 -13.88,70.64c14.96,4.4 30.04,13.29 43.26,27.58c19.19,-29.26 31.29,-63.61 33.92,-100.53z" fill="#6bd9e7" id="svg_20"/>
   <path d="m424.75,373.57c-15.05,47.27 -40.57,87.13 -72.63,114.43c48.08,-14.52 88.96,-45.7 115.89,-86.85c-13.22,-14.29 -28.3,-23.18 -43.26,-27.58z" fill="#4fc122" id="svg_21"/>
  </g>
 </g>
</svg>